<?xml version="1.0" encoding="UTF-8"?>
<svg width="50" height="50" viewBox="0 0 96 96" xmlns="http://www.w3.org/2000/svg">
  <defs>
    <linearGradient id="a" x1="0%" y1="0%" x2="100%" y2="100%">
      <stop offset="0%" stop-color="#114A8B"/>
      <stop offset="100%" stop-color="#0669BC"/>
    </linearGradient>
    <linearGradient id="b" x1="100%" y1="100%" x2="0%" y2="0%">
      <stop offset="0%" stop-color="#3CCBF4"/>
      <stop offset="32.5%" stop-color="#2892DF"/>
      <stop offset="77.5%" stop-color="#1B5EC7"/>
    </linearGradient>
  </defs>
  <path d="M33.34 6.54h26.04l-27.03 80.1a4.15 4.15 0 01-3.9 2.82H8.35a4.13 4.13 0 01-3.9-5.45l24.98-74.65a4.14 4.14 0 013.9-2.82z" fill="url(#a)"/>
  <path d="M71.35 60.81H35.6a2.25 2.25 0 00-1.96 3.34l13.33 24.78a4.15 4.15 0 003.6 2.09h26.27a4.13 4.13 0 003.61-6.18l-5.76-10.7-12.09-22.47a2.25 2.25 0 00-1.96-1.16z" fill="#0078d4"/>
  <path d="M33.34 6.54a4.14 4.14 0 00-3.9 2.82L4.44 84.01a4.13 4.13 0 003.9 5.45h20.1a4.09 4.09 0 004.12-4.13V67.28a9.99 9.99 0 013.18-7.31l25.27-22.24a5.99 5.99 0 003.97-5.62v-1.28a5.99 5.99 0 00-5.99-5.99h-20.1" fill="url(#b)"/>
</svg> 